<svg width="24" height="20" viewBox="0 0 24 20" fill="none" xmlns="http://www.w3.org/2000/svg">
    <path d="M7.54752 19.7503C16.6042 19.7503 21.5578 12.2469 21.5578 5.74003C21.5578 5.52691 21.5578 5.31475 21.5434 5.10355C22.507 4.40651 23.3389 3.54344 24 2.55475C23.1014 2.95315 22.148 3.21431 21.1718 3.32947C22.1998 2.71416 22.9692 1.74625 23.3366 0.605952C22.3701 1.17956 21.3126 1.58378 20.2099 1.80115C19.4675 1.01173 18.4856 0.488993 17.4162 0.313836C16.3468 0.138679 15.2494 0.320866 14.294 0.832205C13.3385 1.34354 12.5782 2.15553 12.1307 3.1425C11.6833 4.12947 11.5735 5.23642 11.8186 6.29203C9.8609 6.19383 7.94576 5.68506 6.19745 4.79876C4.44915 3.91245 2.90676 2.66841 1.6704 1.14739C1.04073 2.23139 0.847872 3.51462 1.1311 4.73581C1.41433 5.95701 2.15234 7.02435 3.19488 7.72051C2.41123 7.69755 1.64465 7.48615 0.96 7.10419V7.16659C0.960311 8.30344 1.35385 9.40519 2.07387 10.285C2.79389 11.1647 3.79606 11.7684 4.9104 11.9935C4.18548 12.1912 3.42487 12.2201 2.68704 12.078C3.00181 13.0563 3.61443 13.9118 4.43924 14.5249C5.26405 15.138 6.25983 15.478 7.28736 15.4975C6.26644 16.2999 5.09731 16.8933 3.84687 17.2435C2.59643 17.5937 1.28921 17.6939 0 17.5384C2.25183 18.9834 4.87192 19.7499 7.54752 19.7464" fill="#1DA1F2"/>
</svg>

